<?xml version="1.0" encoding="utf-8"?>
<!-- Generator: Adobe Illustrator 27.3.1, SVG Export Plug-In . SVG Version: 6.00 Build 0)  -->
<svg version="1.1" xmlns="http://www.w3.org/2000/svg" xmlns:xlink="http://www.w3.org/1999/xlink" x="0px" y="0px"
	 viewBox="0 0 803.96 74" style="enable-background:new 0 0 803.96 74;" xml:space="preserve">
<style type="text/css">
	.st0{fill:#702082;}
	.st1{fill:#FFFFFF;}
</style>
<g id="Guides">
</g>
<g id="Combination-Logos">
	<g>
		<g id="Dentons-Purple_00000011021357824212644070000014445904986434769300_">
			<path id="Guidepost_00000052787291883541351470000005583707897015912381_" class="st0" d="M286.34,33.47L258.61,5.74
				C255.09,2.22,251.48,1,245.83,1H5.99C3.25,1,1,3.25,1,5.99v62.02C1,70.75,3.25,73,5.99,73h239.84c5.65,0,9.26-1.22,12.78-4.74
				l27.73-27.73C288.29,38.59,288.29,35.41,286.34,33.47z"/>
			<g id="Dentons_00000145032651412976418310000000959431324718887578_">
				<g>
					<path class="st1" d="M25.58,51.26V22.74h11.07c9.87,0,13.92,5.53,13.92,14.26c0,8.73-4.05,14.26-13.92,14.26H25.58z
						 M36.48,45.62c5.93,0,7.7-3.54,7.7-8.62c0-5.08-1.77-8.61-7.7-8.61h-4.51v17.23H36.48z"/>
					<path class="st1" d="M78.62,39.57H65.1v6.05h15.35v5.65H58.71V22.74h21.74v5.65H65.1v5.65h13.52V39.57z"/>
					<path class="st1" d="M109.52,51.26L95.03,33.12l0.29,18.14h-6.39V22.74h5.3l14.55,18.14l-0.34-18.14h6.39v28.53H109.52z"/>
					<path class="st1" d="M137.68,28.38v22.88h-6.39V28.38h-9.07v-5.65h24.53v5.65H137.68z"/>
					<path class="st1" d="M166.21,22.05c9.98,0,14.26,5.53,14.26,14.95s-4.28,14.95-14.26,14.95c-9.99,0-14.26-5.53-14.26-14.95
						S156.22,22.05,166.21,22.05z M166.21,27.59c-5.99,0-7.82,3.6-7.82,9.41c0,5.82,1.83,9.41,7.82,9.41c5.99,0,7.81-3.59,7.81-9.41
						C174.02,31.18,172.2,27.59,166.21,27.59z"/>
					<path class="st1" d="M209.11,51.26l-14.49-18.14l0.29,18.14h-6.39V22.74h5.31l14.55,18.14l-0.34-18.14h6.39v28.53H209.11z"/>
					<path class="st1" d="M229,31.18c0,2.11,1.6,2.57,5.71,2.91c8.56,0.74,11.12,2.57,11.12,8.61c0,5.13-3.31,9.24-12.72,9.24
						c-2.85,0-7.87-0.74-9.87-1.65v-5.76c2.28,0.91,6.1,1.71,9.93,1.71c4.68,0,6.33-1.2,6.33-3.54c0-2.28-1.48-3.02-5.59-3.37
						c-8.56-0.74-11.12-2.62-11.12-8.16c0-5.65,3.54-9.13,11.98-9.13c2.85,0,7.3,0.51,9.76,1.6v5.76c-2.57-0.97-6.05-1.65-9.81-1.65
						C230.48,27.76,229,28.78,229,31.18z"/>
				</g>
			</g>
		</g>
		<g>
			<path class="st0" d="M316.68,3.34h19.58v5.29h-12.81v7.02h10.25v4.96h-10.25v7.48h13.48v5.29h-20.25V3.34z"/>
			<path class="st0" d="M351.37,3.34h8.86l9.75,30.04h-7.1l-2.06-6.68h-10.88l-2.06,6.68h-6.38L351.37,3.34z M351.42,21.86h7.94
				l-3.95-12.98L351.42,21.86z"/>
			<path class="st0" d="M375.39,3.34h6.81v24.7h12.22v5.33h-19.03V3.34z"/>
			<path class="st0" d="M398.09,18.54v-0.34c0-9.12,6.39-15.33,14.91-15.33c7.23,0,12.6,3.53,13.32,10.92h-6.97
				c-0.5-3.61-2.52-5.54-6.3-5.54c-4.75,0-7.77,3.7-7.77,9.91v0.34c0,6.22,2.86,9.83,7.81,9.83c3.74,0,6.34-1.89,6.89-5.76h6.68
				c-0.76,7.44-6.09,11.26-13.48,11.26C403.34,33.83,398.09,27.78,398.09,18.54z"/>
			<path class="st0" d="M316.33,48.49h12.86v1.44h-11.11v8.73h9.01v1.44h-9.01v9.33h11.67v1.44h-13.43V48.49z"/>
			<path class="st0" d="M341.78,48.49h2.32l8.04,22.38h-1.75l-2.47-6.85h-10.08l-2.44,6.85h-1.66L341.78,48.49z M338.34,62.61h9.08
				l-4.54-12.67L338.34,62.61z"/>
			<path class="st0" d="M355.14,64.46h1.72c0.38,2.82,1.94,5.23,6.6,5.23c3.5,0,5.79-2.03,5.79-4.79c0-3.13-1.5-4.22-6.01-4.91
				c-4.88-0.72-7.23-2.35-7.23-5.88c0-3.47,2.85-5.85,7.04-5.85c4.16,0,6.7,2.07,7.2,5.63h-1.6c-0.53-2.79-2.28-4.19-5.6-4.19
				c-3.44,0-5.41,1.6-5.41,4.29c0,2.44,1.22,3.76,5.88,4.44c5.01,0.75,7.42,2.16,7.42,6.35c0,3.54-2.97,6.35-7.48,6.35
				C357.92,71.12,355.61,68.12,355.14,64.46z"/>
			<path class="st0" d="M380.83,49.93h-6.95v-1.44h15.62v1.44h-6.95v20.94h-1.72V49.93z"/>
			<path class="st0" d="M410.15,47.99h2.37l8.22,22.88h-1.79l-2.53-7.01h-10.3l-2.5,7.01h-1.7L410.15,47.99z M406.63,62.42h9.28
				l-4.64-12.96L406.63,62.42z"/>
			<path class="st0" d="M425.54,47.99h13.02v1.47h-11.23v9.09h8.83v1.47h-8.83v10.85h-1.79V47.99z"/>
			<path class="st0" d="M443.48,47.99h6.27c4.45,0,7.78,1.73,7.78,6.14v0.13c0,3.81-2.5,5.57-5.92,6.05l7.26,10.56h-1.98
				l-7.17-10.43h-4.45v10.43h-1.79V47.99z M449.85,59c3.68,0,5.89-1.41,5.89-4.74v-0.13c0-3.52-2.34-4.67-5.89-4.67h-4.58V59H449.85
				z"/>
			<path class="st0" d="M463.83,47.99h1.79v22.88h-1.79V47.99z"/>
			<path class="st0" d="M471.51,59.58v-0.26c0-6.75,4.64-11.62,10.62-11.62c4.74,0,8.54,2.46,9.25,7.17h-1.79
				c-0.7-3.68-3.2-5.73-7.42-5.73c-5.12,0-8.83,4.1-8.83,10.14v0.26c0,6.18,3.39,10.08,8.83,10.08c4.13,0,7.07-2.18,7.81-6.11h1.66
				c-0.83,4.93-4.58,7.62-9.5,7.62C475.6,71.13,471.51,66.49,471.51,59.58z"/>
			<path class="st0" d="M502.75,47.99h2.37l8.22,22.88h-1.79l-2.53-7.01h-10.3l-2.5,7.01h-1.7L502.75,47.99z M499.23,62.42h9.28
				l-4.64-12.96L499.23,62.42z"/>
			<path class="st0" d="M518.14,47.99h2.43l12.8,20.41V47.99h1.7v22.88h-2.11l-13.09-20.89v20.89h-1.73V47.99z"/>
			<path class="st0" d="M551.62,47.99h1.79V69.4h11.1v1.47h-12.9V47.99z"/>
			<path class="st0" d="M576.64,47.99h2.37l8.22,22.88h-1.79l-2.53-7.01h-10.3l-2.5,7.01h-1.7L576.64,47.99z M573.12,62.42h9.28
				l-4.64-12.96L573.12,62.42z"/>
			<path class="st0" d="M588.92,47.99h1.79l5.25,20.16l6.05-20.16h1.25l5.82,20.22l5.54-20.22h1.63l-6.27,22.88h-1.73l-5.63-19.71
				l-5.95,19.71h-1.7L588.92,47.99z"/>
			<path class="st0" d="M629.66,59.58v-0.26c0-6.75,4.64-11.62,10.62-11.62c4.74,0,8.54,2.46,9.25,7.17h-1.79
				c-0.7-3.68-3.2-5.73-7.42-5.73c-5.12,0-8.83,4.1-8.83,10.14v0.26c0,6.18,3.39,10.08,8.83,10.08c4.13,0,7.07-2.18,7.81-6.11h1.66
				c-0.83,4.93-4.58,7.62-9.5,7.62C633.76,71.13,629.66,66.49,629.66,59.58z"/>
			<path class="st0" d="M655.24,47.99h1.79v10.66h13.47V47.99h1.79v22.88h-1.79V60.15h-13.47v10.72h-1.79V47.99z"/>
			<path class="st0" d="M685.33,47.99h2.37l8.22,22.88h-1.79l-2.53-7.01h-10.3l-2.5,7.01h-1.7L685.33,47.99z M681.81,62.42h9.28
				l-4.64-12.96L681.81,62.42z"/>
			<path class="st0" d="M700.73,47.99h2.56l8.06,19.65l8.1-19.65h2.5v22.88h-1.76V50.23l-8.61,20.64H711l-8.61-20.64v20.64h-1.66
				V47.99z"/>
			<path class="st0" d="M729.04,47.99h6.5c4.03,0,6.94,1.63,6.94,5.79v0.13c0,2.53-1.34,4.26-3.9,4.96
				c3.42,0.64,5.02,2.46,5.02,5.57v0.13c0,4.19-2.75,6.3-7.1,6.3h-7.46V47.99z M735.56,58.3c3.49,0,5.15-1.54,5.15-4.42v-0.13
				c0-2.98-1.86-4.32-5.22-4.32h-4.7v8.86H735.56z M736.46,69.43c3.58,0,5.41-1.7,5.41-4.86v-0.13c0-3.14-2.02-4.74-6.02-4.74h-5.06
				v9.73H736.46z"/>
			<path class="st0" d="M749.52,47.99h13.15v1.47h-11.36v8.93h9.22v1.47h-9.22v9.54h11.94v1.47h-13.73V47.99z"/>
			<path class="st0" d="M768.22,47.99h6.27c4.45,0,7.78,1.73,7.78,6.14v0.13c0,3.81-2.5,5.57-5.92,6.05l7.26,10.56h-1.98
				l-7.17-10.43h-4.45v10.43h-1.79V47.99z M774.59,59c3.68,0,5.89-1.41,5.89-4.74v-0.13c0-3.52-2.34-4.67-5.89-4.67h-4.58V59H774.59
				z"/>
			<path class="st0" d="M786.8,64.31h1.76c0.38,2.88,1.98,5.34,6.75,5.34c3.58,0,5.92-2.08,5.92-4.9c0-3.2-1.54-4.32-6.14-5.02
				c-4.99-0.74-7.39-2.4-7.39-6.02c0-3.55,2.91-5.98,7.2-5.98c4.26,0,6.85,2.11,7.36,5.76h-1.63c-0.54-2.85-2.34-4.29-5.73-4.29
				c-3.52,0-5.54,1.63-5.54,4.38c0,2.5,1.25,3.84,6.02,4.54c5.12,0.77,7.58,2.21,7.58,6.5c0,3.62-3.04,6.5-7.65,6.5
				C789.65,71.13,787.28,68.05,786.8,64.31z"/>
		</g>
	</g>
</g>
</svg>
